<?xml version="1.0" encoding="UTF-8" standalone="no"?>
<svg
   xmlns:dc="http://purl.org/dc/elements/1.1/"
   xmlns:cc="http://creativecommons.org/ns#"
   xmlns:rdf="http://www.w3.org/1999/02/22-rdf-syntax-ns#"
   xmlns:svg="http://www.w3.org/2000/svg"
   xmlns="http://www.w3.org/2000/svg"
   xmlns:sodipodi="http://sodipodi.sourceforge.net/DTD/sodipodi-0.dtd"
   xmlns:inkscape="http://www.inkscape.org/namespaces/inkscape"
   id="Layer_1"
   version="1.1"
   viewBox="0 0 49.999999 49.030164"
   xml:space="preserve"
   sodipodi:docname="children.svg"
   width="50"
   height="49.030167"
   inkscape:version="0.92.3 (2405546, 2018-03-11)"><metadata
     id="metadata4928"><rdf:RDF><cc:Work
         rdf:about=""><dc:format>image/svg+xml</dc:format><dc:type
           rdf:resource="http://purl.org/dc/dcmitype/StillImage" /><dc:title /></cc:Work></rdf:RDF></metadata><defs
     id="defs4926" /><sodipodi:namedview
     pagecolor="#ffffff"
     bordercolor="#666666"
     borderopacity="1"
     objecttolerance="10"
     gridtolerance="10"
     guidetolerance="10"
     inkscape:pageopacity="0"
     inkscape:pageshadow="2"
     inkscape:window-width="1853"
     inkscape:window-height="1025"
     id="namedview4924"
     showgrid="false"
     inkscape:zoom="8.7213748"
     inkscape:cx="16.484742"
     inkscape:cy="33.659735"
     inkscape:window-x="67"
     inkscape:window-y="27"
     inkscape:window-maximized="1"
     inkscape:current-layer="g6062" /><g
     inkscape:groupmode="layer"
     id="layer2"
     inkscape:label="circle"
     transform="translate(-34.561196,-165.20363)" /><g
     id="g6062"
     transform="matrix(0.1927887,0,0,0.19964071,-6.4337512,6.356073)"
     style="stroke:#ff650c;stroke-opacity:1"><ellipse
       ry="115.34879"
       rx="122.22843"
       cy="90.95845"
       cx="163.04768"
       id="path5473"
       style="fill:#f9f9f9;fill-opacity:1;stroke:#ff650c;stroke-width:14.89443398;stroke-miterlimit:4;stroke-dasharray:none;stroke-opacity:1" /><g
       transform="matrix(0.69298072,0,0,0.7021007,54.119871,25.684024)"
       id="g4921"
       style="stroke:#ff650c;stroke-opacity:1;fill:#ff650c;fill-opacity:1"><path
         inkscape:connector-curvature="0"
         style="fill:#ff650c;fill-opacity:1;stroke:#ff650c;stroke-opacity:1"
         id="path4887"
         d="m 133.284,65.594 c 0.257,-0.591 0.513,-1.14 0.764,-1.639 v 2.798 c 4.979,7.761 9.712,19.053 12.831,35.455 h 19.955 c 3.118,-16.393 7.849,-27.683 12.831,-35.444 v -2.808 c 0.252,0.501 0.509,1.051 0.767,1.645 3.15,-4.663 6.366,-7.97 9.311,-10.303 -1.101,-1.776 -2.298,-3.357 -3.598,-4.723 -3.395,-3.566 -7.442,-5.623 -11.786,-6.031 -0.228,-0.026 -0.458,-0.043 -0.693,-0.043 h -0.11 c -0.267,-0.012 -0.531,-0.043 -0.8,-0.043 -0.246,0 -0.487,0.016 -0.726,0.043 h -30.345 c -0.238,-0.027 -0.48,-0.043 -0.726,-0.043 -0.269,0 -0.533,0.03 -0.8,0.043 h -0.111 c -0.234,0 -0.465,0.017 -0.693,0.043 -4.343,0.408 -8.391,2.465 -11.786,6.031 -1.298,1.364 -2.494,2.943 -3.594,4.715 2.941,2.33 6.157,5.636 9.309,10.304 z" /><path
         inkscape:connector-curvature="0"
         style="fill:#ff650c;fill-opacity:1;stroke:#ff650c;stroke-opacity:1"
         id="path4889"
         d="m 178.978,137.949 v -1.734 c 0,-3.691 0.252,-7.877 0.686,-12.357 v -4.33 c -1.543,1.334 -3.542,2.139 -5.701,2.139 -0.392,0 -0.789,-0.026 -1.18,-0.079 -4.784,-0.647 -8.147,-5.062 -7.502,-9.843 0.307,-2.269 0.65,-4.431 1.012,-6.538 h -18.875 c 0.361,2.107 0.705,4.268 1.012,6.537 0.646,4.782 -2.718,9.197 -7.499,9.843 -0.393,0.053 -0.788,0.079 -1.179,0.079 -2.16,0 -4.161,-0.806 -5.704,-2.14 v 4.34 c 0.434,4.476 0.685,8.658 0.685,12.348 v 1.734 l -0.685,0.394 v 36.032 c 0,5.729 4.646,10.375 10.378,10.375 5.727,0 10.373,-4.646 10.373,-10.375 V 124.96 h 4.113 v 49.416 c 0,5.729 4.646,10.375 10.377,10.375 5.729,0 10.375,-4.646 10.375,-10.375 v -36.031 z" /><circle
         style="fill:#ff650c;fill-opacity:1;stroke:#ff650c;stroke-opacity:1"
         id="circle4891"
         r="20.5"
         cy="20.5"
         cx="156.856" /><path
         inkscape:connector-curvature="0"
         style="fill:#ff650c;fill-opacity:1;stroke:#ff650c;stroke-opacity:1"
         id="path4893"
         d="m 262.502,105.208 c 0.361,2.107 0.705,4.268 1.012,6.537 0.646,4.782 -2.718,9.197 -7.499,9.843 -0.393,0.053 -0.788,0.079 -1.179,0.079 -2.16,0 -4.161,-0.806 -5.704,-2.14 v 4.34 c 0.434,4.477 0.685,8.659 0.685,12.348 v 1.734 l -0.685,0.394 v 36.032 c 0,5.729 4.646,10.375 10.378,10.375 5.727,0 10.373,-4.646 10.373,-10.375 V 124.96 h 4.113 v 49.416 c 0,5.729 4.646,10.375 10.377,10.375 5.729,0 10.375,-4.646 10.375,-10.375 v -65.875 -3.293 z" /><path
         inkscape:connector-curvature="0"
         style="fill:#ff650c;fill-opacity:1;stroke:#ff650c;stroke-opacity:1"
         id="path4895"
         d="m 289.441,44.544 c -0.228,-0.026 -0.458,-0.043 -0.693,-0.043 h -0.11 c -0.267,-0.012 -0.531,-0.043 -0.8,-0.043 -0.246,0 -0.487,0.016 -0.726,0.043 h -30.345 c -0.238,-0.027 -0.48,-0.043 -0.726,-0.043 -0.269,0 -0.533,0.03 -0.8,0.043 h -0.111 c -0.234,0 -0.465,0.017 -0.693,0.043 -4.343,0.408 -8.391,2.465 -11.786,6.031 -1.298,1.364 -2.494,2.943 -3.594,4.715 2.941,2.33 6.157,5.636 9.309,10.304 0.257,-0.591 0.513,-1.14 0.764,-1.639 v 2.798 c 4.979,7.761 9.712,19.053 12.831,35.455 h 32.785 V 89.042 63.956 c 3.158,6.27 7.021,19.584 5.697,46.39 -0.177,3.585 2.586,6.636 6.172,6.813 0.109,0.005 0.218,0.008 0.325,0.008 3.443,0 6.315,-2.703 6.487,-6.179 1.462,-29.6 -2.758,-50.49 -12.202,-60.413 -3.392,-3.566 -7.44,-5.623 -11.784,-6.031 z" /><circle
         style="fill:#ff650c;fill-opacity:1;stroke:#ff650c;stroke-opacity:1"
         id="circle4897"
         r="20.5"
         cy="20.5"
         cx="271.94" /><path
         inkscape:connector-curvature="0"
         style="fill:#ff650c;fill-opacity:1;stroke:#ff650c;stroke-opacity:1"
         id="path4899"
         d="m 63.895,137.949 v -1.734 c 0,-3.692 0.252,-7.877 0.686,-12.357 v -4.329 c -1.543,1.334 -3.542,2.139 -5.701,2.139 -0.392,0 -0.789,-0.026 -1.18,-0.079 -4.784,-0.647 -8.147,-5.062 -7.502,-9.843 0.307,-2.269 0.65,-4.431 1.012,-6.538 H 18.965 v 3.293 65.875 c 0,5.729 4.646,10.375 10.378,10.375 5.727,0 10.373,-4.646 10.373,-10.375 V 124.96 h 4.113 v 49.416 c 0,5.729 4.646,10.375 10.377,10.375 5.729,0 10.375,-4.646 10.375,-10.375 v -36.031 z" /><path
         inkscape:connector-curvature="0"
         style="fill:#ff650c;fill-opacity:1;stroke:#ff650c;stroke-opacity:1"
         id="path4901"
         d="m 18.965,89.042 v 13.166 H 51.75 C 54.868,85.815 59.599,74.525 64.581,66.764 v -2.807 c 0.252,0.501 0.509,1.051 0.767,1.645 3.15,-4.663 6.366,-7.97 9.311,-10.303 -1.101,-1.776 -2.298,-3.357 -3.598,-4.723 -3.395,-3.566 -7.442,-5.623 -11.786,-6.031 -0.228,-0.026 -0.458,-0.043 -0.693,-0.043 h -0.11 c -0.267,-0.012 -0.531,-0.043 -0.8,-0.043 -0.246,0 -0.487,0.016 -0.726,0.043 H 26.6 c -0.238,-0.027 -0.48,-0.043 -0.726,-0.043 -0.269,0 -0.533,0.03 -0.8,0.043 h -0.111 c -0.234,0 -0.465,0.017 -0.693,0.043 -4.343,0.408 -8.391,2.465 -11.786,6.031 -9.443,9.921 -13.663,30.811 -12.201,60.411 0.172,3.476 3.044,6.179 6.487,6.179 0.107,0 0.217,-0.002 0.325,-0.008 3.586,-0.177 6.349,-3.228 6.172,-6.813 -1.324,-26.807 2.539,-40.121 5.697,-46.391 v 25.088 z" /><circle
         style="fill:#ff650c;fill-opacity:1;stroke:#ff650c;stroke-opacity:1"
         id="circle4903"
         r="20.5"
         cy="20.5"
         cx="41.772999" /><path
         inkscape:connector-curvature="0"
         style="fill:#ff650c;fill-opacity:1;stroke:#ff650c;stroke-opacity:1"
         id="path4905"
         d="m 80.232,144.078 v 32.241 c 0,4.491 3.641,8.134 8.133,8.134 4.492,0 8.133,-3.643 8.133,-8.134 v -30.203 c -6.299,-0.193 -11.757,-1.011 -16.266,-2.038 z" /><path
         inkscape:connector-curvature="0"
         style="fill:#ff650c;fill-opacity:1;stroke:#ff650c;stroke-opacity:1"
         id="path4907"
         d="m 102.129,176.319 c 0,4.491 3.643,8.134 8.135,8.134 4.49,0 8.133,-3.643 8.133,-8.134 v -32.241 c -4.509,1.027 -9.967,1.846 -16.268,2.039 z" /><path
         inkscape:connector-curvature="0"
         style="fill:#ff650c;fill-opacity:1;stroke:#ff650c;stroke-opacity:1"
         id="path4909"
         d="m 99.315,48.013 c 0.308,0 0.632,0.015 0.948,0.022 10.602,-0.499 19.051,-9.227 19.051,-19.952 0,-11.046 -8.954,-20 -20,-20 -11.046,0 -20,8.954 -20,20 0,10.726 8.45,19.454 19.052,19.952 0.316,-0.007 0.64,-0.022 0.949,-0.022 z" /><path
         inkscape:connector-curvature="0"
         style="fill:#ff650c;fill-opacity:1;stroke:#ff650c;stroke-opacity:1"
         id="path4911"
         d="m 53.171,112.147 c -0.425,3.147 1.781,6.043 4.928,6.468 3.169,0.425 6.044,-1.782 6.469,-4.928 2.475,-18.314 6.791,-29.919 11.095,-37.259 -3.918,18.115 -8.768,43.771 -8.768,59.787 0,0 12.068,6.949 32.419,6.949 20.351,0 32.419,-6.949 32.419,-6.949 0,-16.022 -4.854,-41.693 -8.773,-59.809 4.299,7.343 8.624,18.956 11.101,37.281 0.39,2.886 2.857,4.981 5.691,4.98 0.256,0 0.516,-0.017 0.777,-0.052 3.146,-0.425 5.353,-3.321 4.928,-6.468 -6.129,-45.351 -23.49,-56.207 -30.876,-58.791 -1.65,-0.618 -4.006,-1.241 -7.3,-1.643 -2.284,-0.37 -5.113,-0.699 -7.966,-0.699 -2.852,0 -5.68,0.329 -7.962,0.699 -3.313,0.404 -5.678,1.032 -7.331,1.653 -7.402,2.6 -24.729,13.485 -30.851,58.781 z" /><path
         inkscape:connector-curvature="0"
         style="fill:#ff650c;fill-opacity:1;stroke:#ff650c;stroke-opacity:1"
         id="path4913"
         d="m 195.316,144.078 v 32.241 c 0,4.491 3.641,8.134 8.133,8.134 4.492,0 8.133,-3.643 8.133,-8.134 v -30.203 c -6.3,-0.193 -11.757,-1.011 -16.266,-2.038 z" /><path
         inkscape:connector-curvature="0"
         style="fill:#ff650c;fill-opacity:1;stroke:#ff650c;stroke-opacity:1"
         id="path4915"
         d="m 217.212,176.319 c 0,4.491 3.643,8.134 8.135,8.134 4.49,0 8.133,-3.643 8.133,-8.134 v -32.241 c -4.509,1.027 -9.967,1.846 -16.268,2.039 z" /><path
         inkscape:connector-curvature="0"
         style="fill:#ff650c;fill-opacity:1;stroke:#ff650c;stroke-opacity:1"
         id="path4917"
         d="m 214.398,48.013 c 0.308,0 0.632,0.015 0.948,0.022 10.602,-0.499 19.051,-9.227 19.051,-19.952 0,-11.046 -8.954,-20 -20,-20 -11.046,0 -20,8.954 -20,20 0,10.726 8.45,19.454 19.052,19.952 0.316,-0.007 0.64,-0.022 0.949,-0.022 z" /><path
         inkscape:connector-curvature="0"
         style="fill:#ff650c;fill-opacity:1;stroke:#ff650c;stroke-opacity:1"
         id="path4919"
         d="m 168.255,112.147 c -0.425,3.147 1.781,6.043 4.928,6.468 3.169,0.425 6.044,-1.782 6.469,-4.928 2.475,-18.314 6.791,-29.919 11.095,-37.259 -3.918,18.115 -8.768,43.771 -8.768,59.787 0,0 12.068,6.949 32.419,6.949 20.351,0 32.419,-6.949 32.419,-6.949 0,-16.022 -4.854,-41.693 -8.773,-59.809 4.299,7.343 8.624,18.956 11.101,37.281 0.39,2.886 2.857,4.981 5.691,4.98 0.256,0 0.516,-0.017 0.777,-0.052 3.146,-0.425 5.353,-3.321 4.928,-6.468 -6.129,-45.351 -23.49,-56.207 -30.876,-58.791 -1.65,-0.618 -4.006,-1.241 -7.3,-1.643 -2.284,-0.37 -5.113,-0.699 -7.966,-0.699 -2.852,0 -5.68,0.329 -7.962,0.699 -3.313,0.404 -5.678,1.032 -7.331,1.653 -7.402,2.6 -24.73,13.485 -30.851,58.781 z" /></g></g></svg>