<?xml version="1.0" encoding="UTF-8" standalone="no"?>
<svg
   xmlns:dc="http://purl.org/dc/elements/1.1/"
   xmlns:cc="http://creativecommons.org/ns#"
   xmlns:rdf="http://www.w3.org/1999/02/22-rdf-syntax-ns#"
   xmlns:svg="http://www.w3.org/2000/svg"
   xmlns="http://www.w3.org/2000/svg"
   xmlns:sodipodi="http://sodipodi.sourceforge.net/DTD/sodipodi-0.dtd"
   xmlns:inkscape="http://www.inkscape.org/namespaces/inkscape"
   enable-background="new 0 0 64 64"
   height="64px"
   id="Layer_1"
   version="1.1"
   viewBox="0 0 64 64"
   width="64px"
   xml:space="preserve"
   sodipodi:docname="givingIcon.svg"
   inkscape:version="0.92.3 (2405546, 2018-03-11)"><metadata
     id="metadata41"><rdf:RDF><cc:Work
         rdf:about=""><dc:format>image/svg+xml</dc:format><dc:type
           rdf:resource="http://purl.org/dc/dcmitype/StillImage" /><dc:title /></cc:Work></rdf:RDF></metadata><defs
     id="defs39" /><sodipodi:namedview
     pagecolor="#ffffff"
     bordercolor="#666666"
     borderopacity="1"
     objecttolerance="10"
     gridtolerance="10"
     guidetolerance="10"
     inkscape:pageopacity="0"
     inkscape:pageshadow="2"
     inkscape:window-width="1853"
     inkscape:window-height="1025"
     id="namedview37"
     showgrid="false"
     inkscape:zoom="9.3249707"
     inkscape:cx="-5.394057"
     inkscape:cy="31.666123"
     inkscape:window-x="67"
     inkscape:window-y="27"
     inkscape:window-maximized="1"
     inkscape:current-layer="Layer_1" /><g
     inkscape:groupmode="layer"
     id="layer1"
     inkscape:label="circle" /><g
     id="g869"
     transform="matrix(1.4021786,0,0,1.3917874,-15.353137,-12.619675)"><path
       style="color:#000000;font-style:normal;font-variant:normal;font-weight:normal;font-stretch:normal;font-size:medium;line-height:normal;font-family:sans-serif;font-variant-ligatures:normal;font-variant-position:normal;font-variant-caps:normal;font-variant-numeric:normal;font-variant-alternates:normal;font-feature-settings:normal;text-indent:0;text-align:start;text-decoration:none;text-decoration-line:none;text-decoration-style:solid;text-decoration-color:#000000;letter-spacing:normal;word-spacing:normal;text-transform:none;writing-mode:lr-tb;direction:ltr;text-orientation:mixed;dominant-baseline:auto;baseline-shift:baseline;text-anchor:start;white-space:normal;shape-padding:0;clip-rule:nonzero;display:inline;overflow:visible;visibility:visible;opacity:1;isolation:auto;mix-blend-mode:normal;color-interpolation:sRGB;color-interpolation-filters:linearRGB;solid-color:#000000;solid-opacity:1;vector-effect:none;fill:#ff650c;fill-opacity:1;fill-rule:nonzero;stroke:none;stroke-width:2.70000005;stroke-linecap:butt;stroke-linejoin:miter;stroke-miterlimit:4;stroke-dasharray:none;stroke-dashoffset:0;stroke-opacity:1;color-rendering:auto;image-rendering:auto;shape-rendering:auto;text-rendering:auto;enable-background:accumulate"
       d="m 33.744141,9.7636719 c -12.327574,0 -22.34961,10.0220351 -22.34961,22.3496091 0,12.327574 10.022036,22.34961 22.34961,22.34961 12.327574,0 22.349609,-10.022036 22.349609,-22.34961 0,-12.327574 -10.022035,-22.3496091 -22.349609,-22.3496091 z m 0,2.6992191 c 10.868385,0 19.65039,8.782005 19.65039,19.65039 0,10.868386 -8.782005,19.650391 -19.65039,19.650391 -10.868386,0 -19.650391,-8.782005 -19.650391,-19.650391 0,-10.868385 8.782005,-19.65039 19.650391,-19.65039 z"
       id="path43"
       inkscape:connector-curvature="0" /><g
       id="g34"><g
         id="g12"><path
           style="fill:#ff650c;fill-opacity:1;stroke:#ffffff;stroke-width:0.2;stroke-miterlimit:4;stroke-dasharray:none;stroke-opacity:1"
           id="path10"
           d="m 22.126,30.232 c -0.218,0 -0.435,-0.028 -0.646,-0.084 -0.622,-0.167 -1.138,-0.563 -1.451,-1.115 -0.491,-0.863 -0.096,-1.644 0.139,-2.109 l 0.079,-0.157 c 1.178,-2.462 2.769,-4.887 5.008,-7.633 2.446,-3 5.451,-4.746 9.185,-5.336 2.596,-0.409 5.172,-0.215 7.664,-0.027 l 0.97,0.072 c 2.045,0.143 3.342,-0.036 4.306,-1.404 0.141,-0.2 0.311,-0.331 0.447,-0.437 l 0.114,-0.091 c 0.31,-0.275 0.782,-0.247 1.059,0.064 0.274,0.31 0.246,0.784 -0.064,1.059 -0.061,0.054 -0.126,0.105 -0.191,0.156 -0.048,0.037 -0.121,0.093 -0.141,0.117 -1.505,2.138 -3.7,2.169 -5.636,2.033 l -0.977,-0.072 c -2.406,-0.181 -4.897,-0.369 -7.316,0.013 -3.354,0.53 -6.055,2.101 -8.257,4.803 -2.161,2.65 -3.692,4.98 -4.818,7.333 L 21.507,27.6 c -0.22,0.434 -0.25,0.557 -0.174,0.692 0.114,0.201 0.304,0.345 0.536,0.407 0.265,0.072 0.558,0.029 0.805,-0.115 1.057,-0.618 1.795,-1.591 2.577,-2.622 l 0.109,-0.144 c 0.64,-0.84 1.37,-1.576 2.076,-2.288 0.397,-0.4 0.796,-0.801 1.175,-1.219 1.471,-1.623 3.521,-2.124 5.332,-2.566 0.367,-0.09 0.732,-0.262 1.118,-0.444 0.67,-0.315 1.425,-0.672 2.347,-0.64 0.414,0.015 0.737,0.363 0.722,0.777 -0.015,0.414 -0.316,0.747 -0.776,0.722 -0.525,-0.032 -1.063,0.22 -1.652,0.498 -0.436,0.205 -0.887,0.417 -1.401,0.544 -1.602,0.391 -3.415,0.834 -4.577,2.117 -0.396,0.436 -0.808,0.852 -1.221,1.268 -0.703,0.708 -1.367,1.378 -1.947,2.14 l -0.108,0.142 c -0.836,1.102 -1.701,2.241 -3.014,3.01 -0.401,0.232 -0.855,0.353 -1.308,0.353 z"
           inkscape:connector-curvature="0" /></g><g
         id="g16"><path
           style="fill:#ff650c;stroke:#ffffff;stroke-width:0.2;stroke-miterlimit:4;stroke-dasharray:none;stroke-opacity:1;fill-opacity:1"
           id="path14"
           d="m 18.634,52.624 c -0.356,0 -0.665,-0.233 -0.724,-0.598 -0.077,-0.472 0.016,-0.849 0.275,-1.12 0.391,-0.409 0.942,-0.346 1.238,-0.313 1.875,0.188 3.716,0.156 5.493,0.126 0.733,-0.013 1.487,-0.02 2.198,-0.023 0.005,0 0.011,0 0.016,0 2.901,0 5.253,-0.849 6.99,-2.521 2.49,-2.396 5.082,-4.991 7.014,-8.071 0.14,-0.221 0.294,-0.434 0.45,-0.646 0.31,-0.423 0.603,-0.821 0.705,-1.263 0.029,-0.125 0.065,-0.254 0.104,-0.383 0.144,-0.494 0.154,-0.632 0.058,-0.739 -0.153,-0.171 -0.399,-0.171 -0.929,-0.127 -0.13,0.011 -0.26,0.021 -0.388,0.026 -0.106,0.004 -0.26,0.14 -0.422,0.283 l -0.126,0.111 c -0.734,0.629 -1.455,1.273 -2.176,1.918 -0.629,0.563 -1.258,1.124 -1.896,1.676 l -0.476,0.413 c -2.082,1.812 -4.234,3.685 -7.175,4.38 -0.406,0.095 -0.808,-0.154 -0.902,-0.559 -0.096,-0.402 0.154,-0.807 0.557,-0.902 2.58,-0.609 4.502,-2.281 6.536,-4.051 l 0.479,-0.416 c 0.631,-0.546 1.254,-1.104 1.877,-1.66 0.729,-0.65 1.458,-1.303 2.2,-1.938 l 0.104,-0.092 c 0.285,-0.254 0.716,-0.639 1.36,-0.664 0.106,-0.004 0.216,-0.013 0.325,-0.021 0.635,-0.051 1.5,-0.121 2.167,0.621 0.674,0.752 0.428,1.599 0.266,2.159 -0.03,0.103 -0.06,0.203 -0.083,0.304 -0.172,0.74 -0.589,1.309 -0.957,1.811 -0.134,0.183 -0.269,0.365 -0.389,0.556 -2.021,3.224 -4.687,5.895 -7.244,8.354 -2.026,1.951 -4.729,2.94 -8.03,2.94 -0.037,10e-4 -0.073,0 -0.11,0 -0.693,0 -1.385,0.012 -2.078,0.022 -1.823,0.031 -3.706,0.063 -5.577,-0.122 l -0.012,-10e-4 c -0.087,0.26 -0.305,0.473 -0.585,0.518 -0.045,0.009 -0.089,0.012 -0.133,0.012 z"
           inkscape:connector-curvature="0" /></g><g
         id="g20"><path
           style="fill:#ff650c;stroke:#ffffff;stroke-width:0.2;stroke-miterlimit:4;stroke-dasharray:none;stroke-opacity:1;fill-opacity:1"
           id="path18"
           d="m 17.426,46.885 c -0.482,0 -0.988,-0.057 -1.525,-0.168 -0.405,-0.085 -0.666,-0.482 -0.581,-0.888 0.084,-0.405 0.479,-0.667 0.888,-0.581 1.486,0.311 2.563,0.109 3.599,-0.673 1.478,-1.112 2.678,-2.263 3.67,-3.517 0.975,-1.234 2.286,-1.865 3.65,-1.846 1.619,0.025 3.229,-0.285 4.899,-0.964 1.008,-0.409 1.669,-0.116 1.971,0.096 0.549,0.384 0.835,1.081 0.805,1.966 -0.015,0.412 -0.316,0.75 -0.775,0.723 -0.414,-0.014 -0.738,-0.361 -0.725,-0.775 0.016,-0.438 -0.096,-0.636 -0.163,-0.684 -0.065,-0.045 -0.25,-0.057 -0.548,0.064 -1.861,0.756 -3.654,1.117 -5.491,1.074 -0.943,-0.028 -1.763,0.411 -2.446,1.275 -1.072,1.357 -2.362,2.596 -3.944,3.785 -0.991,0.748 -2.058,1.113 -3.284,1.113 z"
           inkscape:connector-curvature="0" /></g><g
         id="g24"><path
           style="fill:#ff650c;stroke:#ffffff;stroke-width:0.2;stroke-miterlimit:4;stroke-dasharray:none;stroke-opacity:1;fill-opacity:1"
           id="path22"
           d="m 31.664,25.864 c -0.467,0 -0.866,-0.122 -1.193,-0.363 -0.481,-0.355 -0.762,-0.939 -0.833,-1.736 -0.037,-0.413 0.268,-0.777 0.68,-0.814 0.423,-0.037 0.777,0.267 0.814,0.68 0.03,0.336 0.114,0.578 0.23,0.664 0.111,0.083 0.357,0.092 0.674,0.026 l 0.546,-0.117 c 1.313,-0.285 2.672,-0.579 4.082,-0.436 1.572,0.156 2.869,-0.425 4.352,-1.949 1.559,-1.603 4.06,-3.673 7.753,-3.151 0.41,0.058 0.696,0.438 0.638,0.848 -0.058,0.41 -0.442,0.696 -0.847,0.638 -2.33,-0.329 -4.325,0.507 -6.468,2.712 -1.221,1.254 -2.962,2.659 -5.579,2.395 -1.176,-0.119 -2.358,0.137 -3.612,0.409 l -0.556,0.119 c -0.241,0.05 -0.468,0.075 -0.681,0.075 z"
           inkscape:connector-curvature="0" /></g><g
         id="g28"><path
           style="fill:#ff650c;fill-opacity:1"
           id="path26"
           d="m 33.093,33.813 c -0.23,0 -0.458,-0.105 -0.604,-0.305 -0.246,-0.334 -0.175,-0.803 0.158,-1.049 l 0.149,-0.106 c 0.078,-0.055 0.159,-0.108 0.228,-0.173 0.211,-0.201 0.327,-0.334 0.39,-0.418 -0.089,-0.061 -0.245,-0.154 -0.521,-0.282 -0.259,-0.121 -1.047,-0.489 -1.013,-1.489 0.019,-0.501 0.231,-1.363 1.466,-1.508 0.405,-0.046 0.783,0.246 0.832,0.658 0.048,0.412 -0.246,0.784 -0.658,0.833 -0.137,0.016 -0.18,0.039 -0.181,0.04 0.024,0.019 0.059,0.047 0.188,0.108 0.68,0.317 1.325,0.705 1.437,1.388 0.112,0.681 -0.368,1.247 -0.904,1.759 -0.123,0.117 -0.262,0.217 -0.403,0.316 l -0.118,0.084 c -0.136,0.097 -0.292,0.144 -0.446,0.144 z"
           inkscape:connector-curvature="0" /></g><g
         id="g32"><path
           style="fill:#ff650c;stroke-width:0.2;stroke-miterlimit:4;stroke-dasharray:none;fill-opacity:1"
           id="path30"
           d="m 33.313,35.639 c -0.888,0 -1.737,-0.191 -2.333,-0.585 -1.767,-1.164 -2.172,-3.738 -1.8,-5.637 0.388,-1.98 1.854,-2.71 3.147,-3.354 l 0.422,-0.212 c 0.128,-0.066 0.266,-0.092 0.4,-0.081 h 10e-4 c 1.333,-0.098 2.359,0.099 3.146,0.599 1.511,0.962 2.389,2.473 2.409,4.146 0.02,1.683 -0.867,3.291 -2.373,4.3 -0.812,0.543 -1.945,0.824 -3.019,0.824 z m -0.037,-8.374 -0.28,0.142 c -1.302,0.647 -2.11,1.105 -2.344,2.299 -0.281,1.433 0.027,3.355 1.152,4.096 0.743,0.49 2.628,0.479 3.692,-0.232 1.099,-0.737 1.722,-1.844 1.708,-3.036 -0.014,-1.157 -0.639,-2.213 -1.714,-2.898 -0.494,-0.316 -1.246,-0.44 -2.214,-0.371 z"
           inkscape:connector-curvature="0" /></g></g></g></svg>